{"title":"Log Horizon","uid":11685290,"size":1828861657,"categoryP":"video","categoryS":"tv_shows","magnet":"?xt=urn:btih:297f1f738e99fbff9aabc10021b4089634f41a11&amp;dn=Log+Horizon&amp;tr=udp%3A%2F%2Ftracker.openbittorrent.com%3A80&amp;tr=udp%3A%2F%2Fopen.demonii.com%3A1337&amp;tr=udp%3A%2F%2Ftracker.coppersurfer.tk%3A6969&amp;tr=udp%3A%2F%2Fexodus.desync.com%3A6969","seeders":0,"leechers":1,"uploader":"p7trick","files":26,"time":1423293675,"description":"____________________________________________________________________________\n\n        PLS TAKE NOTE THAT, THIS MIGHT BE MY LAST TORRENT HERE AT TPB.\n\n____________________________________________________________________________\n\ndownloaded from watchcartoononline\n\nLog Horizon ENGLISH DUBBED ep 1-25\n\n_________________________________________________________\n\nFormat : Flash Video\nFile size : 67.1 MiB\nDuration : 25mn 22s\nOverall bit rate : 369 Kbps\n\n\nVideo\nFormat : AVC\nFormat/Info : Advanced Video Codec\nFormat profile : &lt;a class=&quot;__cf_email__&quot; href=&quot;/cdn-cgi/l/email-protection&quot; data-cfemail=&quot;0149686669414d322f31&quot;&gt;[email&amp;#160;protected]&lt;/a&gt;&lt;script cf-hash='f9e31' type=&quot;text/javascript&quot;&gt;\n/* &lt;![CDATA[ */!function(){try{var t=&quot;currentScript&quot;in document?document.currentScript:function(){for(var t=document.getElementsByTagName(&quot;script&quot;),e=t.length;e--;)if(t[e].getAttribute(&quot;cf-hash&quot;))return t[e]}();if(t&amp;&amp;t.previousSibling){var e,r,n,i,c=t.previousSibling,a=c.getAttribute(&quot;data-cfemail&quot;);if(a){for(e=&quot;&quot;,r=parseInt(a.substr(0,2),16),n=2;a.length-n;n+=2)i=parseInt(a.substr(n,2),16)^r,e+=String.fromCharCode(i);e=document.createTextNode(e),c.parentNode.replaceChild(e,c)}}}catch(u){}}();/* ]]&gt; */&lt;/script&gt;\nFormat settings, CABAC : Yes\nFormat settings, ReFrames : 5 frames\nCodec ID : 7\nDuration : 25mn 22s\nBit rate : 232 Kbps\nWidth : 640 pixels\nHeight : 360 pixels\nDisplay aspect ratio : 16:9\nFrame rate mode : Constant\nFrame rate : 23.976 fps\nColor space : YUV\nChroma subsampling : 4:2:0\nBit depth : 8 bits\nScan type : Progressive\nBits/(Pixel*Frame) : 0.042\nStream size : 43.4 MiB (65%)\n\n\nAudio\nFormat : AAC\nFormat/Info : Advanced Audio Codec\nFormat profile : LC\nCodec ID : 10\nDuration : 24mn 32s\nBit rate : 126 Kbps\nChannel(s) : 2 channels\nChannel positions : Front: L R\nSampling rate : 44.1 KHz\nCompression mode : Lossy\nStream size : 23.2 MiB (35%)\nLanguage : English\n\n_________________________________________________________\n\nSummary:\n30,000 Japanese gamers become trapped in the fantasy online game world Elder Tale. What was once a sword-and-sorcery world is now the real world. Shiroe attempts to survive with his old friend Naotsugu and the beautiful assassin Akatsuki.\n\n\n\nFor updates/requests:\nTwitter - @p7tricktorrent\nFacebook - /p7tricktorrent\n_________________________________________________________\n\nSEED!\n\nshare ratio:\n&quot;Scumbag = 0.1:1\nLeecher = 0.999:1\nMinimum = 1:1\nGood = 3:1\nGreat = 5:1\nAwesome = 10:1\n1337 = 100:1&quot;\n\n____________________________________________________________________________\n\n        PLS TAKE NOTE THAT, THIS MIGHT BE MY LAST TORRENT HERE AT TPB","torrent":{"xt":"urn:btih:297f1f738e99fbff9aabc10021b4089634f41a11","amp;dn":"Log+Horizon","amp;tr":["udp%3A%2F%2Ftracker.openbittorrent.com%3A80","udp%3A%2F%2Fopen.demonii.com%3A1337","udp%3A%2F%2Ftracker.coppersurfer.tk%3A6969","udp%3A%2F%2Fexodus.desync.com%3A6969"],"infoHash":"297f1f738e99fbff9aabc10021b4089634f41a11","infoHashBuffer":{"type":"Buffer","data":[41,127,31,115,142,153,251,255,154,171,193,0,33,180,8,150,52,244,26,17]},"announce":[],"urlList":[]}}